<?xml version="1.0" encoding="UTF-8" standalone="no"?>
<!-- Created with Inkscape (http://www.inkscape.org/) -->

<svg
   width="195.34686mm"
   height="195.34686mm"
   viewBox="0 0 195.34686 195.34686"
   version="1.1"
   id="svg1"
   xml:space="preserve"
   inkscape:version="1.3.2 (091e20e, 2023-11-25, custom)"
   sodipodi:docname="nofuel.svg"
   xmlns:inkscape="http://www.inkscape.org/namespaces/inkscape"
   xmlns:sodipodi="http://sodipodi.sourceforge.net/DTD/sodipodi-0.dtd"
   xmlns="http://www.w3.org/2000/svg"
   xmlns:svg="http://www.w3.org/2000/svg"><sodipodi:namedview
     id="namedview1"
     pagecolor="#ffffff"
     bordercolor="#000000"
     borderopacity="0.25"
     inkscape:showpageshadow="2"
     inkscape:pageopacity="0.0"
     inkscape:pagecheckerboard="0"
     inkscape:deskcolor="#d1d1d1"
     inkscape:document-units="mm"
     inkscape:zoom="0.72426347"
     inkscape:cx="491.53383"
     inkscape:cy="340.34576"
     inkscape:window-width="1920"
     inkscape:window-height="1009"
     inkscape:window-x="-8"
     inkscape:window-y="-8"
     inkscape:window-maximized="1"
     inkscape:current-layer="layer1" /><defs
     id="defs1"><clipPath
       clipPathUnits="userSpaceOnUse"
       id="clipPath4"><rect
         style="fill:#ffa5ff;stroke-width:0.634997"
         id="rect4"
         width="116.16974"
         height="97.173431"
         x="177.90775"
         y="-16.439112" /></clipPath></defs><g
     inkscape:label="Layer 1"
     inkscape:groupmode="layer"
     id="layer1"
     transform="translate(22.649452,-26.302582)"><circle
       style="fill:#000000;stroke-width:0.635001"
       id="path1"
       cx="75.023979"
       cy="123.97601"
       r="97.673431" /><circle
       style="fill:#ffffff;fill-opacity:1;stroke-width:0.635002"
       id="path1-9"
       cx="75.023979"
       cy="123.97601"
       r="86.973488" /><path
       style="fill:#ff6600;stroke-width:0.418414"
       d="M 94.022733,30.686343 V -8.7365674 h 40.481247 40.48125 V 30.686343 70.109263 H 134.50398 94.022733 Z m 45.317317,24.53881 2.05794,-0.67482 1.91081,-1.13464 1.9108,-1.13464 1.85209,-1.88538 1.85208,-1.88537 0.99896,-1.70208 0.99896,-1.70208 0.67382,-2.11667 0.67382,-2.11667 0.14907,-2.26486 0.14906,-2.26487 -0.31678,-1.83618 -0.31678,-1.83617 -0.89447,-2.20224 -0.89448,-2.20224 -1.25333,-2.03109 -1.25334,-2.0311 -3.5416,-4.96585 -3.5416,-4.96585 -1.85414,-3.05594 -1.85413,-3.0559404 -0.81125,-1.76779 -0.81124,-1.76779 -0.8678,-2.24896 -0.8678,-2.24895998 -0.18688,0.52917 -0.18688,0.52915998 -1.04029,2.64584 -1.04029,2.64583 -1.17616,2.1584 -1.17617,2.1584004 -1.84347,2.79705 -1.84347,2.79704 -2.35375,3.24664 -2.35375,3.24664 -1.21345,1.87872 -1.21346,1.87872 -0.77668,1.42857 -0.77668,1.42857 -0.6915,1.93467 -0.69151,1.93466 -0.23674,2.11605 -0.23675,2.11605 0.25177,2.0347 0.25177,2.0347 0.62795,1.80833 0.62794,1.80832 0.87863,1.49897 0.87862,1.49897 2.24896,2.25604 2.24896,2.25604 2.12271,1.09952 2.12271,1.09952 1.97833,0.54607 1.97833,0.54606 3.30729,-0.0922 3.30729,-0.0922 z m -8.67253,-3.64198 -1.05833,-0.21186 -1.45521,-0.5718 -1.45521,-0.57181 -1.24947,-0.79774 -1.24947,-0.79774 -1.4008,-1.51303 -1.4008,-1.51303 -0.83955,-1.70537 -0.83955,-1.70537 -0.30065,-1.32277 -0.30066,-1.32276 0.007,-2.24896 0.007,-2.24896 0.56859,-1.85208 0.56859,-1.85209 1.17312,-2.2811 1.17313,-2.2811 1.84286,-2.59453 1.84286,-2.59454 v 0.18409 0.18409 l -1.28866,2.57488 -1.28866,2.57488 -0.68984,2.06313 -0.68985,2.06314 -0.2783,2.23957 -0.2783,2.23958 0.26718,2.04729 0.26717,2.04729 0.40126,1.29594 0.40126,1.29594 0.91883,1.64302 0.91883,1.64302 1.24937,1.38961 1.24938,1.3896 1.34633,0.9946 1.34634,0.9946 1.31497,0.68378 1.31498,0.68379 -0.52917,-0.0167 -0.52917,-0.0167 z m 82.68229,4.5046 -1.4552,-0.19377 -1.38518,-0.41758 -1.38518,-0.41758 -2.17918,-1.13373 -2.17918,-1.13373 -1.7961,-1.69436 -1.7961,-1.69435 -1.15271,-1.75139 -1.1527,-1.75139 -0.67467,-1.7198 -0.67467,-1.71979 -0.28665,-1.56994 -0.28664,-1.56995 v -1.9497 -1.9497 l 0.42307,-1.90431 0.42308,-1.90431 1.14158,-2.4346 1.14158,-2.4346 1.74912,-2.59249 1.74912,-2.59248 1.43524,-1.98438 1.43523,-1.98437 2.25238,-3.30729 2.25238,-3.30729 1.69197,-3.3072904 1.69197,-3.3073 0.76549,-2.18212 0.7655,-2.18212998 0.15011,-6.8e-4 0.15012,-6.9e-4 0.47227,1.52134998 0.47227,1.52136 1.51398,3.175 1.51398,3.175 1.50748,2.4309004 1.50747,2.4309 2.72856,3.79804 2.72856,3.79805 1.65681,2.46403 1.65681,2.46404 1.03008,2.15493 1.03008,2.15494 0.53185,2.09284 0.53186,2.09285 v 2.05704 2.05705 l -0.40517,1.93553 -0.40516,1.93552 -1.16175,2.39296 -1.16175,2.39295 -1.75588,1.89652 -1.75589,1.89651 -1.80723,1.20145 -1.80724,1.20145 -1.81528,0.68901 -1.81528,0.689 -1.98437,0.35929 -1.98438,0.35928 -1.19062,-0.0255 -1.19063,-0.0255 z m -0.51747,-5.49153 -1.69606,-0.99219 -1.90865,-1.87425 -1.90865,-1.87425 -1.19563,-2.49137 -1.19564,-2.49138 -0.28686,-1.40208 -0.28687,-1.40209 0.002,-2.43437 0.002,-2.43437 0.51108,-2.11667 0.51109,-2.11667 0.8164,-1.97019 0.81639,-1.97018 0.63992,-1.14494 0.63992,-1.14493 -0.23848,0.14738 -0.23847,0.14739 -1.6015,2.39426 -1.60149,2.39426 -1.04355,2.16097 -1.04356,2.16098 -0.40865,1.57695 -0.40864,1.57694 v 2.13778 2.13778 l 0.40512,1.55539 0.40513,1.55539 0.84701,1.60905 0.847,1.60906 1.45985,1.47342 1.45985,1.47342 1.32291,0.77554 1.32292,0.77553 1.71979,0.58849 1.71979,0.58848 0.65544,0.007 0.65544,0.007 z"
       id="path3"
       clip-path="url(#clipPath4)"
       transform="matrix(2.3899796,0,0,2.3899796,-442.8784,50.501583)" /><rect
       style="fill:#000000;fill-opacity:1;stroke-width:0.635"
       id="rect2"
       width="12.744383"
       height="189.14015"
       x="-47.852226"
       y="44.533287"
       rx="0"
       ry="2.8375854"
       transform="rotate(-47.490173)" /></g></svg>
