<?xml version="1.0" encoding="UTF-8" standalone="no"?>
<!-- Created with Inkscape (http://www.inkscape.org/) -->

<svg
   width="195.34686mm"
   height="195.34686mm"
   viewBox="0 0 195.34686 195.34686"
   version="1.1"
   id="svg1"
   xml:space="preserve"
   inkscape:version="1.3.2 (091e20e, 2023-11-25, custom)"
   sodipodi:docname="nopower.svg"
   xmlns:inkscape="http://www.inkscape.org/namespaces/inkscape"
   xmlns:sodipodi="http://sodipodi.sourceforge.net/DTD/sodipodi-0.dtd"
   xmlns="http://www.w3.org/2000/svg"
   xmlns:svg="http://www.w3.org/2000/svg"><sodipodi:namedview
     id="namedview1"
     pagecolor="#ffffff"
     bordercolor="#000000"
     borderopacity="0.25"
     inkscape:showpageshadow="2"
     inkscape:pageopacity="0.0"
     inkscape:pagecheckerboard="0"
     inkscape:deskcolor="#d1d1d1"
     inkscape:document-units="mm"
     inkscape:zoom="0.72426347"
     inkscape:cx="490.84348"
     inkscape:cy="340.34576"
     inkscape:window-width="1920"
     inkscape:window-height="1009"
     inkscape:window-x="1912"
     inkscape:window-y="-8"
     inkscape:window-maximized="1"
     inkscape:current-layer="layer1" /><defs
     id="defs1" /><g
     inkscape:label="Layer 1"
     inkscape:groupmode="layer"
     id="layer1"
     transform="translate(22.649452,-26.302582)"><circle
       style="fill:#000000;stroke-width:0.635001"
       id="path1"
       cx="75.023979"
       cy="123.97601"
       r="97.673431" /><circle
       style="fill:#ffffff;fill-opacity:1;stroke-width:0.635002"
       id="path1-9"
       cx="75.023979"
       cy="123.97601"
       r="86.973488" /><path
       style="fill:#ffcc00;fill-opacity:1;stroke-width:1.00001"
       d="m 21.216096,182.26692 c -0.164867,-0.18244 -0.23227,-0.30975 -0.197007,-0.37207 0.06142,-0.10858 2.078152,-2.36802 4.143179,-4.64171 0.774963,-0.85328 2.584353,-2.84848 4.020862,-4.43378 1.436512,-1.58522 3.694379,-4.0768 5.017484,-5.53669 1.32311,-1.45989 3.042551,-3.36327 3.820994,-4.22965 0.778444,-0.86639 2.293988,-2.54771 3.367906,-3.73629 2.858175,-3.16363 5.697465,-6.35535 5.698005,-6.40533 8.29e-4,-0.10753 -0.606462,-0.13353 -5.395042,-0.23031 -6.554286,-0.13254 -10.56779,-0.23613 -10.605407,-0.27367 -0.01634,-0.0168 1.589848,-1.65064 3.569468,-3.63157 3.18936,-3.19155 27.182201,-26.99168 30.532448,-30.28723 1.964236,-1.93216 4.050859,-4.13466 3.982204,-4.20332 -0.08185,-0.0818 -1.568772,-0.14549 -11.08597,-0.4747 -7.681519,-0.26563 -11.436364,-0.40984 -12.183651,-0.46774 l -0.602183,-0.0471 2.592936,-2.64611 c 7.637747,-7.7945 18.269746,-18.626062 24.455383,-24.914238 2.306228,-2.344457 7.450444,-7.579864 11.431594,-11.63424 l 7.238452,-7.37158 0.424782,-8.24e-4 c 0.233634,-6.09e-4 1.290823,-0.03077 2.349311,-0.06713 1.058485,-0.03636 3.378225,-0.113325 5.154966,-0.171125 1.77669,-0.05785 4.97794,-0.166171 7.11385,-0.240813 2.13585,-0.07466 5.52264,-0.182524 7.52617,-0.239718 2.00365,-0.05726 3.93669,-0.12031 4.29581,-0.140224 0.35911,-0.01987 2.12211,-0.08286 3.91783,-0.139821 1.79558,-0.057 3.83695,-0.136542 4.53619,-0.176811 0.69943,-0.0402 1.59333,-0.0895 1.98647,-0.109389 l 0.71485,-0.0362 -0.0401,0.247373 c -0.0222,0.136048 -0.12149,0.354073 -0.22106,0.48449 -0.15949,0.209239 -2.29609,2.253379 -3.85443,3.687785 -0.93895,0.864271 -5.52713,5.142028 -6.14615,5.730345 -0.32141,0.305374 -1.23377,1.160529 -2.02765,1.90035 -0.79384,0.739809 -2.68055,2.499898 -4.19269,3.9113 -1.51212,1.411402 -3.6154,3.372688 -4.67385,4.358391 -1.05847,0.985714 -2.26478,2.117724 -2.68053,2.515575 -0.41589,0.39785 -1.93142,1.821519 -3.36795,3.163717 -6.789419,6.343716 -11.909099,11.145887 -14.212744,13.331457 -1.414441,1.34202 -1.542914,1.48255 -1.404472,1.53628 0.08382,0.0327 5.989678,0.0811 13.124096,0.10799 7.13453,0.0273 12.98896,0.0656 13.00992,0.0867 0.0387,0.0387 -1.22984,1.06719 -7.49259,6.07833 -6.358637,5.08805 -21.19333,16.93518 -24.778083,19.78817 -7.561921,6.01828 -14.386642,11.5053 -15.756964,12.66842 -0.330778,0.28072 -0.60141,0.54251 -0.60141,0.58185 0,0.0695 1.106843,0.0658 17.389366,-0.0596 3.316242,-0.0258 5.223711,-0.0159 5.284614,0.0272 0.05242,0.0371 0.109083,0.21695 0.125932,0.40053 l 0.03058,0.33387 -1.775516,0.99034 c -4.392405,2.45006 -10.841341,6.03872 -11.466816,6.38098 -0.378033,0.20681 -0.888371,0.4921 -1.134092,0.63406 -0.415416,0.23964 -10.400728,5.7988 -11.547079,6.42859 -0.283532,0.15573 -1.226884,0.6811 -2.096355,1.16738 -0.869468,0.48631 -2.199446,1.22951 -2.955508,1.65141 -5.826372,3.25173 -8.719109,4.86556 -9.4851,5.29154 -0.491438,0.27341 -2.548267,1.41831 -4.570718,2.54427 -2.022472,1.12593 -5.161836,2.87342 -6.976369,3.88324 -1.814544,1.00983 -4.629146,2.57769 -6.254676,3.48418 -1.62553,0.90649 -3.388522,1.88944 -3.917758,2.18432 -0.529247,0.2949 -1.039588,0.5883 -1.134098,0.6519 -0.207851,0.13997 -1.694746,0.96422 -1.7394,0.96422 -0.01738,0 -0.144415,-0.12481 -0.282248,-0.27737 z"
       id="path2" /><rect
       style="fill:#000000;fill-opacity:1;stroke-width:0.635"
       id="rect2"
       width="12.744383"
       height="189.14015"
       x="-47.852226"
       y="44.533287"
       rx="0"
       ry="2.8375854"
       transform="rotate(-47.490173)" /></g></svg>
